<svg width="118" height="28" viewBox="0 0 118 28" fill="none" xmlns="http://www.w3.org/2000/svg">
<path d="M0 27.0681V0H0.402637V27.0681H0ZM0.805275 27.0681V0H1.61055V27.0681H0.805275ZM2.81846 27.0681V0H3.2211V27.0681H2.81846Z" fill="#333333"/>
<path d="M4.43006 27.0681V0H4.8327V27.0681H4.43006ZM5.23533 27.0681V0H6.04061V27.0681H5.23533ZM6.84588 27.0681V0H7.24852V27.0681H6.84588Z" fill="#333333"/>
<path d="M8.86012 27.0681V0H9.26276V27.0681H8.86012ZM10.8733 27.0681V0H11.2759V27.0681H10.8733ZM12.0812 27.0681V0H12.8865V27.0681H12.0812Z" fill="#333333"/>
<path d="M13.2902 27.0681V0H13.6928V27.0681H13.2902ZM14.0955 27.0681V0H14.9007V27.0681H14.0955ZM15.706 27.0681V0H16.1086V27.0681H15.706Z" fill="#333333"/>
<path d="M17.7202 27.0681V0H18.1229V27.0681H17.7202ZM18.9282 27.0681V0H19.3308V27.0681H18.9282ZM19.7334 27.0681V0H20.5387V27.0681H19.7334Z" fill="#333333"/>
<path d="M22.1503 27.0681V0H22.9556V27.0681H22.1503ZM23.7608 27.0681V0H24.1635V27.0681H23.7608ZM24.5661 27.0681V0H24.9688V27.0681H24.5661Z" fill="#333333"/>
<path d="M26.5804 27.0681V0H26.983V27.0681H26.5804ZM27.3856 27.0681V0H28.9962V27.0681H27.3856ZM29.8015 27.0681V0H30.2041V27.0681H29.8015Z" fill="#333333"/>
<path d="M31.0104 27.0681V0H31.4131V27.0681H31.0104ZM32.2183 27.0681V0H32.621V27.0681H32.2183ZM33.0236 27.0681V0H33.8289V27.0681H33.0236Z" fill="#333333"/>
<path d="M35.4405 27.0681V0H35.8431V27.0681H35.4405ZM36.6484 27.0681V0H37.4537V27.0681H36.6484ZM37.8563 27.0681V0H38.2589V27.0681H37.8563Z" fill="#333333"/>
<path d="M39.8705 27.0681V0H40.2732V27.0681H39.8705ZM41.0784 27.0681V0H41.4811V27.0681H41.0784ZM41.8837 27.0681V0H42.689V27.0681H41.8837Z" fill="#333333"/>
<path d="M44.3006 27.0681V0H45.1059V27.0681H44.3006ZM46.7164 27.0681V0H47.1191V27.0681H46.7164ZM47.5217 27.0681V0H47.9243V27.0681H47.5217Z" fill="#333333"/>
<path d="M48.7307 27.0681V0H49.1333V27.0681H48.7307ZM49.9386 27.0681V0H51.5491V27.0681H49.9386ZM51.9518 27.0681V0H52.3544V27.0681H51.9518Z" fill="#333333"/>
<path d="M53.1607 27.0681V0H53.5633V27.0681H53.1607ZM53.966 27.0681V0H54.7713V27.0681H53.966ZM55.5765 27.0681V0H55.9792V27.0681H55.5765Z" fill="#333333"/>
<path d="M57.5908 27.0681V0H58.396V27.0681H57.5908ZM60.0066 27.0681V0H60.4092V27.0681H60.0066ZM60.8119 27.0681V0H61.2145V27.0681H60.8119Z" fill="#333333"/>
<path d="M62.0208 27.0681V0H62.4235V27.0681H62.0208ZM63.2287 27.0681V0H64.034V27.0681H63.2287ZM64.4367 27.0681V0H64.8393V27.0681H64.4367Z" fill="#333333"/>
<path d="M66.4509 27.0681V0H66.8535V27.0681H66.4509ZM67.6588 27.0681V0H68.0614V27.0681H67.6588ZM69.672 27.0681V0H70.4773V27.0681H69.672Z" fill="#333333"/>
<path d="M70.881 27.0681V0H71.2836V27.0681H70.881ZM72.0889 27.0681V0H72.4915V27.0681H72.0889ZM72.8941 27.0681V0H73.6994V27.0681H72.8941Z" fill="#333333"/>
<path d="M75.311 27.0681V0H75.7136V27.0681H75.311ZM76.5189 27.0681V0H77.3242V27.0681H76.5189ZM77.7268 27.0681V0H78.1295V27.0681H77.7268Z" fill="#333333"/>
<path d="M79.7411 27.0681V0H80.1437V27.0681H79.7411ZM80.949 27.0681V0H82.5595V27.0681H80.949ZM82.9622 27.0681V0H83.3648V27.0681H82.9622Z" fill="#333333"/>
<path d="M84.1711 27.0681V0H84.5738V27.0681H84.1711ZM85.379 27.0681V0H85.7817V27.0681H85.379ZM86.1843 27.0681V0H86.9896V27.0681H86.1843Z" fill="#333333"/>
<path d="M88.6012 27.0681V0H89.0038V27.0681H88.6012ZM89.4065 27.0681V0H91.017V27.0681H89.4065ZM91.8223 27.0681V0H92.2249V27.0681H91.8223Z" fill="#333333"/>
<path d="M93.0312 27.0681V0H93.4339V27.0681H93.0312ZM95.0444 27.0681V0H95.8497V27.0681H95.0444ZM96.2523 27.0681V0H96.655V27.0681H96.2523Z" fill="#333333"/>
<path d="M97.4613 27.0681V0H97.8639V27.0681H97.4613ZM98.6692 27.0681V0H99.0719V27.0681H98.6692ZM99.4745 27.0681V0H100.28V27.0681H99.4745Z" fill="#333333"/>
<path d="M101.891 27.0681V0H102.294V27.0681H101.891ZM102.697 27.0681V0H104.307V27.0681H102.697ZM105.112 27.0681V0H105.515V27.0681H105.112Z" fill="#333333"/>
<path d="M106.321 27.0681V0H107.127V27.0681H106.321ZM107.932 27.0681V0H108.335V27.0681H107.932ZM108.737 27.0681V0H109.14V27.0681H108.737Z" fill="#333333"/>
<path d="M110.751 27.0681V0H111.557V27.0681H110.751ZM111.959 27.0681V0H112.765V27.0681H111.959ZM113.167 27.0681V0H114.778V27.0681H113.167Z" fill="#333333"/>
<path d="M115.182 27.0681V0H115.584V27.0681H115.182ZM116.389 27.0681V0H116.792V27.0681H116.389ZM117.195 27.0681V0H118V27.0681H117.195Z" fill="#333333"/>
</svg>
