<svg width="170" height="170" viewBox="0 0 170 170" fill="none" xmlns="http://www.w3.org/2000/svg">
<g clip-path="url(#clip0_39_1649)">
<path d="M21.25 21.25H42.5V42.5H21.25V21.25Z" fill="white"/>
<path d="M63.75 0V63.75H0V0H63.75ZM53.125 10.625H10.625V53.125H53.125V10.625ZM42.5 127.5H21.25V148.75H42.5V127.5Z" fill="white"/>
<path d="M63.75 106.25V170H0V106.25H63.75ZM10.625 116.875V159.375H53.125V116.875H10.625ZM127.5 21.25H148.75V42.5H127.5V21.25Z" fill="white"/>
<path d="M106.25 0V63.75H170V0H106.25ZM159.375 10.625V53.125H116.875V10.625H159.375ZM85 10.625V0H95.625V21.25H85V42.5H74.375V10.625H85ZM85 63.75V42.5H95.625V63.75H85ZM63.75 85V74.375H74.375V63.75H85V85H95.625V74.375H148.75V85H106.25V95.625H74.375V85H63.75ZM63.75 85V95.625H21.25V85H10.625V95.625H0V74.375H31.875V85H63.75ZM170 95.625H159.375V74.375H170V95.625ZM159.375 95.625H148.75V116.875H170V106.25H159.375V95.625ZM116.875 95.625H138.125V106.25H127.5V116.875H116.875V95.625ZM138.125 127.5V116.875H127.5V127.5H116.875V138.125H95.625V148.75H127.5V127.5H138.125ZM138.125 127.5H170V138.125H148.75V148.75H138.125V127.5ZM95.625 116.875V127.5H106.25V106.25H74.375V116.875H95.625Z" fill="white"/>
<path d="M74.375 127.5H85V159.375H127.5V170H74.375V127.5ZM170 148.75V170H138.125V159.375H159.375V148.75H170Z" fill="white"/>
</g>
<defs>
<clipPath id="clip0_39_1649">
<rect width="170" height="170" fill="white"/>
</clipPath>
</defs>
</svg>
