<svg width="27" height="27" viewBox="0 0 27 27" fill="none" xmlns="http://www.w3.org/2000/svg">
<path d="M19.125 23.0625H7.875C4.5 23.0625 2.25 21.375 2.25 17.4375V9.5625C2.25 5.625 4.5 3.9375 7.875 3.9375H19.125C22.5 3.9375 24.75 5.625 24.75 9.5625V17.4375C24.75 21.375 22.5 23.0625 19.125 23.0625Z" stroke="black" stroke-width="1.5" stroke-miterlimit="10" stroke-linecap="round" stroke-linejoin="round"/>
<path d="M13.5 16.875C15.364 16.875 16.875 15.364 16.875 13.5C16.875 11.636 15.364 10.125 13.5 10.125C11.636 10.125 10.125 11.636 10.125 13.5C10.125 15.364 11.636 16.875 13.5 16.875Z" stroke="black" stroke-width="1.5" stroke-miterlimit="10" stroke-linecap="round" stroke-linejoin="round"/>
<path d="M9.5625 6.75H7.875C6.3225 6.75 5.0625 8.01 5.0625 9.5625V11.25" stroke="black" stroke-width="1.5" stroke-miterlimit="10" stroke-linecap="round" stroke-linejoin="round"/>
<path d="M17.4375 6.75H19.125C20.6775 6.75 21.9375 8.01 21.9375 9.5625V11.25" stroke="black" stroke-width="1.5" stroke-miterlimit="10" stroke-linecap="round" stroke-linejoin="round"/>
<path d="M9.5625 20.25H7.875C6.3225 20.25 5.0625 18.99 5.0625 17.4375V15.75" stroke="black" stroke-width="1.5" stroke-miterlimit="10" stroke-linecap="round" stroke-linejoin="round"/>
<path d="M17.4375 20.25H19.125C20.6775 20.25 21.9375 18.99 21.9375 17.4375V15.75" stroke="black" stroke-width="1.5" stroke-miterlimit="10" stroke-linecap="round" stroke-linejoin="round"/>
</svg>
