<svg width="312" height="208" viewBox="0 0 312 208" fill="none" xmlns="http://www.w3.org/2000/svg">
<mask id="mask0_234_299" style="mask-type:alpha" maskUnits="userSpaceOnUse" x="4" y="0" width="304" height="200">
<rect x="4" width="304" height="200" rx="3" fill="black"/>
</mask>
<g mask="url(#mask0_234_299)">
<rect x="4" width="304" height="200" rx="3" fill="black"/>
<path d="M204.233 247.264C213.859 241.706 215.309 234.339 211.897 228.428C208.614 222.743 203.471 220.984 195.533 223.615L188.336 225.969C182.507 227.833 180.435 227.754 178.452 224.32C176.535 220.999 177.876 218.123 183.449 214.905C190.204 211.005 193.628 212.256 196.293 216.872L196.651 217.491L202.618 214.046L202.228 213.37C198.36 206.672 190.815 203.222 180.401 209.235C170.662 214.857 169.318 222.539 172.535 228.112C175.98 234.078 181.29 235.216 188.479 232.717L195.644 230.306C202.124 228.141 203.965 228.729 205.947 232.163C207.962 235.653 206.813 238.343 201.241 241.561C193.36 246.111 190.024 244.884 187.327 240.212L186.969 239.593L181.003 243.038L181.555 243.994C185.748 251.256 193.369 253.536 204.233 247.264ZM228.536 232.481L206.761 194.766L200.682 198.276L222.457 235.991L228.536 232.481ZM242.202 225.342C247.493 222.287 249.369 218.127 249.474 214.539L249.756 214.376L252.291 218.767L257.92 215.517L248.105 198.517C244.172 191.706 237.502 189.252 229.677 193.77C222.19 198.092 219.893 205.423 223.501 211.671L223.826 212.234L229.68 208.854L229.192 208.01C227.047 204.295 227.98 201.88 232.427 199.312C236.818 196.777 239.447 196.911 241.852 201.076L242.729 202.596L233.779 209.715C228.3 214.004 226.32 218.375 228.985 222.991C231.812 227.888 237.192 228.235 242.202 225.342ZM234.636 219.128C233.433 217.045 234.136 215.663 237.085 213.36L245.199 206.874L245.492 207.381C248.742 213.01 245.317 217.089 241.377 219.364C237.83 221.411 235.903 221.323 234.636 219.128ZM275.666 206.022C282.759 201.927 285.113 196.514 282.123 191.335C279.458 186.72 275.246 185.924 269.225 187.974L263.976 189.804C259.581 191.291 258.21 191.257 256.975 189.117C255.74 186.978 256.127 185.179 260.574 182.611C265.584 179.719 267.557 181.056 269.052 183.646L269.442 184.321L275.24 180.974L274.948 180.467C271.275 174.106 264.436 173.701 257.85 177.504C250.532 181.729 248.317 187.511 251.242 192.578C254.167 197.644 258.619 198.075 264.149 196.084L268.906 194.313C273.438 192.672 275.179 192.568 276.479 194.819C277.681 196.902 277.422 198.403 272.919 201.003C267.571 204.09 265.57 203.745 263.815 200.705L263.23 199.692L257.376 203.072L257.441 203.184C261.373 209.995 267.504 210.734 275.666 206.022ZM297.307 192.777L288.012 176.677C284.957 171.386 286.103 168.172 291.057 165.312C296.18 162.355 298.958 163.527 301.851 168.537L311.211 184.749L317.29 181.239L307.118 163.62C303.575 157.484 297.717 154.487 290.399 158.712C285.333 161.637 283.909 166.061 284.077 169.342L283.852 169.472L275.532 155.061L269.452 158.571L291.227 196.287L297.307 192.777ZM334.697 184.174L326.572 170.101L326.74 170.004C329.474 171.878 333.902 172.399 338.912 169.506C346.512 165.119 347.451 156.996 342.349 148.158C337.214 139.264 329.597 136.081 321.716 140.631C316.875 143.426 314.771 147.192 315.361 151.205L315.08 151.367L312.415 146.751L306.898 149.936L328.673 187.652L334.697 184.174ZM322.444 162.952L319.552 157.942C316.854 153.27 318.289 149.515 323.242 146.655C328.646 143.535 332.272 144.744 336.269 151.668C340.234 158.536 339.412 162.312 334.065 165.4C329.111 168.26 325.142 167.625 322.444 162.952ZM363.416 155.359C368.707 152.304 370.583 148.144 370.688 144.556L370.969 144.393L373.504 148.784L379.134 145.534L369.319 128.534C365.386 121.723 358.716 119.269 350.891 123.787C343.404 128.109 341.107 135.44 344.715 141.688L345.04 142.251L350.894 138.871L350.406 138.027C348.261 134.312 349.194 131.897 353.641 129.329C358.032 126.794 360.661 126.928 363.066 131.093L363.943 132.613L354.993 139.732C349.514 144.021 347.534 148.392 350.199 153.008C353.026 157.905 358.406 158.252 363.416 155.359ZM355.85 149.145C354.647 147.062 355.35 145.68 358.299 143.377L366.413 136.891L366.706 137.398C369.956 143.027 366.531 147.106 362.591 149.381C359.044 151.428 357.117 151.34 355.85 149.145ZM393.671 149.901C398.061 147.366 400.016 144.511 399.239 138.355L394.397 99.419L387.698 103.286L390.408 119.81L391.61 127.222L391.16 127.482L385.117 122.865L371.655 112.549L364.957 116.416L392.564 136.804L392.86 139.786C393.161 142.389 392.545 143.27 390.124 144.668L386.296 146.878L389.156 151.831C390.276 151.56 392.151 150.778 393.671 149.901Z" fill="white" fill-opacity="0.07"/>
<circle cx="7.50002" cy="19.5" r="39.5" transform="rotate(-121.242 7.50002 19.5)" stroke="url(#paint0_radial_234_299)" stroke-opacity="0.5" stroke-width="12"/>
<circle cx="274" cy="28" r="47" stroke="white" stroke-opacity="0.5" stroke-width="4"/>
<circle cx="263" cy="30" r="12" fill="white" fill-opacity="0.4"/>
<circle cx="279" cy="30" r="12" fill="white" fill-opacity="0.2"/>
</g>
<defs>
<radialGradient id="paint0_radial_234_299" cx="0" cy="0" r="1" gradientUnits="userSpaceOnUse" gradientTransform="translate(-17.6268 -26) rotate(55.758) scale(97.758)">
<stop stop-color="#08DCED"/>
<stop offset="0.575627" stop-color="white" stop-opacity="0.805208"/>
<stop offset="1" stop-color="#E504A8" stop-opacity="0.56"/>
</radialGradient>
</defs>
</svg>
