<svg width="17" height="19" viewBox="0 0 17 19" fill="none" xmlns="http://www.w3.org/2000/svg">
<path d="M13.6401 18.0299H2.6001C1.5001 18.0299 0.600098 17.1299 0.600098 16.0299V9.87988C0.600098 8.77988 1.5001 7.87988 2.6001 7.87988H13.6401C14.7401 7.87988 15.6401 8.77988 15.6401 9.87988V16.0299C15.6401 17.1299 14.7401 18.0299 13.6401 18.0299Z" fill="black" stroke="black" stroke-width="1.2" stroke-miterlimit="10" stroke-linecap="round" stroke-linejoin="round"/>
<path d="M12.5901 7.8801V5.0701C12.5901 2.6001 10.5901 0.600098 8.12015 0.600098C5.65015 0.600098 3.65015 2.6001 3.65015 5.0701V7.8801" stroke="black" stroke-width="1.2" stroke-miterlimit="10" stroke-linecap="round" stroke-linejoin="round"/>
<path d="M8.8399 11.7303C8.8399 12.1279 8.51755 12.4503 8.1199 12.4503C7.72226 12.4503 7.3999 12.1279 7.3999 11.7303C7.3999 11.3326 7.72226 11.0103 8.1199 11.0103C8.51755 11.0103 8.8399 11.3326 8.8399 11.7303Z" fill="white" stroke="white"/>
<path d="M12.94 11.7303C12.94 12.1279 12.6176 12.4503 12.22 12.4503C11.8224 12.4503 11.5 12.1279 11.5 11.7303C11.5 11.3326 11.8224 11.0103 12.22 11.0103C12.6176 11.0103 12.94 11.3326 12.94 11.7303Z" fill="white" stroke="white"/>
<path d="M4.94 11.7303C4.94 12.1279 4.61764 12.4503 4.22 12.4503C3.82236 12.4503 3.5 12.1279 3.5 11.7303C3.5 11.3326 3.82235 11.0103 4.22 11.0103C4.61765 11.0103 4.94 11.3326 4.94 11.7303Z" fill="white" stroke="white"/>
</svg>
