<svg width="24" height="24" viewBox="0 0 24 24" fill="none" xmlns="http://www.w3.org/2000/svg">
<path d="M17.6401 21.0299H6.6001C5.5001 21.0299 4.6001 20.1299 4.6001 19.0299V12.8799C4.6001 11.7799 5.5001 10.8799 6.6001 10.8799H17.6401C18.7401 10.8799 19.6401 11.7799 19.6401 12.8799V19.0299C19.6401 20.1299 18.7401 21.0299 17.6401 21.0299Z" fill="black" stroke="black" stroke-width="1.2" stroke-miterlimit="10" stroke-linecap="round" stroke-linejoin="round"/>
<path d="M16.5901 10.8801V8.0701C16.5901 5.6001 14.5901 3.6001 12.1201 3.6001C9.65015 3.6001 7.65015 5.6001 7.65015 8.0701V10.8801" stroke="black" stroke-width="1.2" stroke-miterlimit="10" stroke-linecap="round" stroke-linejoin="round"/>
<path d="M12.8399 14.7303C12.8399 15.1279 12.5175 15.4503 12.1199 15.4503C11.7223 15.4503 11.3999 15.1279 11.3999 14.7303C11.3999 14.3326 11.7223 14.0103 12.1199 14.0103C12.5175 14.0103 12.8399 14.3326 12.8399 14.7303Z" fill="white" stroke="white"/>
<path d="M12.1201 15.52V17.5" stroke="white" stroke-width="1.2" stroke-miterlimit="10" stroke-linecap="round" stroke-linejoin="round"/>
</svg>
