<svg width="152" height="152" viewBox="0 0 152 152" fill="none" xmlns="http://www.w3.org/2000/svg">
<circle cx="76" cy="76" r="76" fill="black" fill-opacity="0.62"/>
<circle cx="76" cy="76" r="64" fill="black"/>
<path d="M78.977 88.131V86.682C78.977 83.301 81.668 81.231 84.842 79.092C88.775 76.401 93.674 72.882 93.674 65.361C93.674 55.701 87.188 49.974 76.355 49.974C65.591 49.974 58.139 57.219 58.139 67.776H69.248C69.248 62.946 71.87 59.91 76.079 59.91C80.012 59.91 82.22 62.187 82.22 66.12C82.22 69.501 79.736 71.571 76.907 73.848C73.388 76.677 69.386 79.989 69.386 86.682V88.131H78.977ZM74.492 102.897C77.942 102.897 80.84 99.999 80.84 96.687C80.84 93.306 77.942 90.408 74.492 90.408C70.973 90.408 68.144 93.237 68.144 96.687C68.144 100.068 70.973 102.897 74.492 102.897Z" fill="white"/>
</svg>
